<?xml version="1.0" encoding="UTF-8" standalone="no"?>
<svg
   xmlns:dc="http://purl.org/dc/elements/1.1/"
   xmlns:cc="http://creativecommons.org/ns#"
   xmlns:rdf="http://www.w3.org/1999/02/22-rdf-syntax-ns#"
   xmlns:svg="http://www.w3.org/2000/svg"
   xmlns="http://www.w3.org/2000/svg"
   xmlns:sodipodi="http://sodipodi.sourceforge.net/DTD/sodipodi-0.dtd"
   xmlns:inkscape="http://www.inkscape.org/namespaces/inkscape"
   viewBox="0 0 16 16"
   version="1.1"
   id="svg3791"
   sodipodi:docname="icon_lua_script.svg"
   inkscape:version="0.92.4 (5da689c313, 2019-01-14)"
   width="16"
   height="16">
  <metadata
     id="metadata3797">
    <rdf:RDF>
      <cc:Work
         rdf:about="">
        <dc:format>image/svg+xml</dc:format>
        <dc:type
           rdf:resource="http://purl.org/dc/dcmitype/StillImage" />
        <dc:title>file_type_lua</dc:title>
      </cc:Work>
    </rdf:RDF>
  </metadata>
  <defs
     id="defs3795" />
  <sodipodi:namedview
     pagecolor="#ffffff"
     bordercolor="#666666"
     borderopacity="1"
     objecttolerance="10"
     gridtolerance="10"
     guidetolerance="10"
     inkscape:pageopacity="0"
     inkscape:pageshadow="2"
     inkscape:window-width="1862"
     inkscape:window-height="1016"
     id="namedview3793"
     showgrid="false"
     inkscape:zoom="19.78125"
     inkscape:cx="16"
     inkscape:cy="6.6120957"
     inkscape:window-x="58"
     inkscape:window-y="27"
     inkscape:window-maximized="1"
     inkscape:current-layer="svg3791" />
  <title
     id="title3775">luascript</title>
  <path
     style="fill:#e0e0e0;fill-opacity:1;stroke-width:0.65167129"
     clip-path="none"
     d="M 7.2412675,1.9313071 A 6.9780124,6.9781805 0 0 0 0.26316587,8.9100601 6.9780124,6.9781805 0 0 0 7.2412675,15.886585 6.9780124,6.9781805 0 0 0 14.219369,8.9100601 6.9780124,6.9781805 0 0 0 7.2412675,1.9313071 Z M 10.130985,3.9739232 A 2.0436165,2.0436658 0 0 1 12.174064,6.0187669 2.0436165,2.0436658 0 0 1 10.130985,8.0613831 2.0436165,2.0436658 0 0 1 8.0879081,6.0187669 2.0436165,2.0436658 0 0 1 10.130985,3.9739232 Z M 2.5023077,7.8185857 H 3.0882721 V 11.883769 H 5.351922 v 0.514553 H 2.5023077 Z M 10.68353,9.0125251 c 0.811321,0 1.238768,0.3133974 1.238768,0.8999088 v 1.8287751 c 0,0.166183 0.101136,0.260618 0.282957,0.260619 a 0.43270454,0.43271497 0 0 0 0.113628,-0.01118 v 0.394267 l -0.0022,-0.0022 a 1.281822,1.281853 0 0 1 -0.35648,0.05791 0.55717226,0.55718568 0 0 1 -0.541406,-0.434363 1.5398807,1.5399179 0 0 1 -1.116229,0.483368 c -0.6659995,0 -1.080581,-0.349749 -1.080581,-0.946687 a 0.86475741,0.86477825 0 0 1 0.5770772,-0.855265 3.7555365,3.755627 0 0 1 1.0560748,-0.200477 c 0.415762,-0.05016 0.54586,-0.145694 0.54586,-0.365309 V 9.9837343 c 0,-0.3141083 -0.264088,-0.4900496 -0.73524,-0.4900496 -0.489399,0 -0.7294607,0.1859733 -0.7731175,0.5880583 H 9.364553 C 9.3958332,9.321866 9.8858938,9.0125251 10.68353,9.0125251 Z m -4.8102557,0.093555 h 0.5213525 v 2.2809559 a 0.6190803,0.61909522 0 0 0 0.6750844,0.645974 c 0.5460949,0 0.8978848,-0.43964 0.8978848,-1.111521 V 9.1060799 H 8.4889484 V 12.398322 H 8.021068 v -0.510096 a 1.2140491,1.2140785 0 0 1 -1.1006328,0.60365 c -0.6405855,0 -1.0471609,-0.351573 -1.0471609,-0.89768 z M 11.398719,10.77002 a 2.6066538,2.6067167 0 0 1 -0.839956,0.180429 c -0.558477,0.08211 -0.7909415,0.233756 -0.7909415,0.579147 0,0.357774 0.2381805,0.501188 0.6461205,0.501188 a 0.8901723,0.89019374 0 0 0 0.987006,-0.770714 h -0.0022 z"
     id="circle3779"
     inkscape:connector-curvature="0" />
  <ellipse
     cx="14.218898"
     cy="1.9309025"
     style="fill:#e0e0e0;fill-opacity:1;stroke-width:0.65167129"
     id="circle3783"
     rx="2.0442684"
     ry="2.0443175" />
</svg>
